<mxfile host="65bd71144e">
    <diagram id="YJa1YVeCBQMnrFL9bhSD" name="第 1 页">
        <mxGraphModel dx="1101" dy="785" grid="0" gridSize="10" guides="0" tooltips="1" connect="1" arrows="1" fold="1" page="1" pageScale="1" pageWidth="2339" pageHeight="3300" background="#FFFFFF" math="0" shadow="0">
            <root>
                <mxCell id="0"/>
                <mxCell id="1" parent="0"/>
                <mxCell id="85" value="" style="rounded=1;whiteSpace=wrap;html=1;strokeColor=#F9F6F1;strokeWidth=3;fontSize=16;fontColor=#1A1A1A;fillColor=#F9F6F1;" vertex="1" parent="1">
                    <mxGeometry x="45" y="424" width="893" height="219" as="geometry"/>
                </mxCell>
                <mxCell id="84" value="" style="rounded=1;whiteSpace=wrap;html=1;strokeColor=#F9F6F1;strokeWidth=3;fontSize=16;fontColor=#1A1A1A;fillColor=#F9F6F1;" vertex="1" parent="1">
                    <mxGeometry x="40" y="143" width="893" height="245" as="geometry"/>
                </mxCell>
                <mxCell id="65" value="" style="rounded=1;whiteSpace=wrap;html=1;fillColor=#B6BCC4;strokeColor=none;strokeWidth=3;" vertex="1" parent="1">
                    <mxGeometry x="390" y="276" width="496" height="88" as="geometry"/>
                </mxCell>
                <mxCell id="64" value="" style="rounded=1;whiteSpace=wrap;html=1;fillColor=#B6BCC4;strokeColor=none;strokeWidth=3;" vertex="1" parent="1">
                    <mxGeometry x="382" y="181" width="246" height="182" as="geometry"/>
                </mxCell>
                <mxCell id="20" value="Table1&lt;br&gt;key range: abandon-awake" style="rounded=1;whiteSpace=wrap;html=1;fontSize=16;fillColor=#DECECE;" parent="1" vertex="1">
                    <mxGeometry x="140" y="200" width="230" height="60" as="geometry"/>
                </mxCell>
                <mxCell id="52" value="Table2&lt;br&gt;key range: boy-edge" style="rounded=1;whiteSpace=wrap;html=1;fontSize=16;fillColor=#DECECE;" parent="1" vertex="1">
                    <mxGeometry x="390" y="200" width="230" height="60" as="geometry"/>
                </mxCell>
                <mxCell id="53" value="Table3&lt;br&gt;key range: operate-zealot" style="rounded=1;whiteSpace=wrap;html=1;fontSize=16;fillColor=#DECECE;" parent="1" vertex="1">
                    <mxGeometry x="640" y="200" width="230" height="60" as="geometry"/>
                </mxCell>
                <mxCell id="54" value="Table4&amp;nbsp;&lt;br&gt;key range: abandon-ace" style="rounded=1;whiteSpace=wrap;html=1;fontSize=16;fillColor=#CEABC5;" parent="1" vertex="1">
                    <mxGeometry x="140" y="290" width="230" height="60" as="geometry"/>
                </mxCell>
                <mxCell id="55" value="Table5&lt;br&gt;key range: control-dog" style="rounded=1;whiteSpace=wrap;html=1;fontSize=16;fillColor=#CEABC5;" parent="1" vertex="1">
                    <mxGeometry x="390" y="290" width="230" height="60" as="geometry"/>
                </mxCell>
                <mxCell id="56" value="Table6&lt;br&gt;key range: edge-jealous" style="rounded=1;whiteSpace=wrap;html=1;fontSize=16;fillColor=#CEABC5;" parent="1" vertex="1">
                    <mxGeometry x="640" y="290" width="230" height="60" as="geometry"/>
                </mxCell>
                <mxCell id="67" value="Table7&lt;br&gt;key range: boy-jealous" style="rounded=1;whiteSpace=wrap;html=1;fontSize=16;fillColor=#B6BCC4;" vertex="1" parent="1">
                    <mxGeometry x="408" y="540" width="230" height="60" as="geometry"/>
                </mxCell>
                <mxCell id="70" value="&lt;font style=&quot;font-size: 16px;&quot; color=&quot;#1a1a1a&quot;&gt;Level1&lt;/font&gt;" style="text;html=1;strokeColor=none;fillColor=none;align=center;verticalAlign=middle;whiteSpace=wrap;rounded=0;strokeWidth=3;" vertex="1" parent="1">
                    <mxGeometry x="64" y="216" width="60" height="30" as="geometry"/>
                </mxCell>
                <mxCell id="71" value="&lt;font style=&quot;font-size: 16px;&quot; color=&quot;#1a1a1a&quot;&gt;Level2&lt;/font&gt;" style="text;html=1;strokeColor=none;fillColor=none;align=center;verticalAlign=middle;whiteSpace=wrap;rounded=0;strokeWidth=3;" vertex="1" parent="1">
                    <mxGeometry x="64" y="304" width="60" height="30" as="geometry"/>
                </mxCell>
                <mxCell id="75" value="Table1&lt;br&gt;key range: abandon-awake" style="rounded=1;whiteSpace=wrap;html=1;fontSize=16;fillColor=#DECECE;" vertex="1" parent="1">
                    <mxGeometry x="150" y="450" width="230" height="60" as="geometry"/>
                </mxCell>
                <mxCell id="77" value="Table3&lt;br&gt;key range: operate-zealot" style="rounded=1;whiteSpace=wrap;html=1;fontSize=16;fillColor=#DECECE;" vertex="1" parent="1">
                    <mxGeometry x="650" y="450" width="230" height="60" as="geometry"/>
                </mxCell>
                <mxCell id="78" value="Table4&amp;nbsp;&lt;br&gt;key range: abandon-ace" style="rounded=1;whiteSpace=wrap;html=1;fontSize=16;fillColor=#CEABC5;" vertex="1" parent="1">
                    <mxGeometry x="150" y="540" width="230" height="60" as="geometry"/>
                </mxCell>
                <mxCell id="81" value="&lt;font style=&quot;font-size: 16px;&quot; color=&quot;#1a1a1a&quot;&gt;Level1&lt;/font&gt;" style="text;html=1;strokeColor=none;fillColor=none;align=center;verticalAlign=middle;whiteSpace=wrap;rounded=0;strokeWidth=3;" vertex="1" parent="1">
                    <mxGeometry x="74" y="466" width="60" height="30" as="geometry"/>
                </mxCell>
                <mxCell id="82" value="&lt;font style=&quot;font-size: 16px;&quot; color=&quot;#1a1a1a&quot;&gt;Level2&lt;/font&gt;" style="text;html=1;strokeColor=none;fillColor=none;align=center;verticalAlign=middle;whiteSpace=wrap;rounded=0;strokeWidth=3;" vertex="1" parent="1">
                    <mxGeometry x="74" y="554" width="60" height="30" as="geometry"/>
                </mxCell>
                <mxCell id="83" value="" style="endArrow=classic;html=1;strokeColor=#B6BCC4;strokeWidth=3;fontSize=16;fontColor=#1A1A1A;exitX=0.5;exitY=1;exitDx=0;exitDy=0;entryX=0.5;entryY=0;entryDx=0;entryDy=0;" edge="1" parent="1" source="65" target="67">
                    <mxGeometry width="50" height="50" relative="1" as="geometry">
                        <mxPoint x="831" y="793" as="sourcePoint"/>
                        <mxPoint x="881" y="743" as="targetPoint"/>
                    </mxGeometry>
                </mxCell>
            </root>
        </mxGraphModel>
    </diagram>
</mxfile>